<?xml version="1.0" encoding="UTF-8" standalone="no"?>
<!DOCTYPE svg PUBLIC "-//W3C//DTD SVG 1.1//EN" "http://www.w3.org/Graphics/SVG/1.1/DTD/svg11.dtd">
<svg version="1.1" xmlns="http://www.w3.org/2000/svg" xmlns:xlink="http://www.w3.org/1999/xlink" preserveAspectRatio="xMidYMid meet" viewBox="1.9729032258064518 238.21548387096752 184.99612903225807 167.22064516129032" width="181" height="163.22"><defs><path d="M132.98 285.58C132.98 285.58 132.98 285.58 132.98 285.58C132.98 299.8 132.98 307.71 132.98 309.29C132.98 309.29 132.98 309.29 132.98 309.29C85.57 309.29 59.23 309.29 53.97 309.29C53.97 309.29 53.97 309.29 53.97 309.29C53.97 295.06 53.97 287.16 53.97 285.58C53.97 285.58 53.97 285.58 53.97 285.58C101.37 285.58 127.71 285.58 132.98 285.58Z" id="b3gCVdbaFM"></path><path d="M132.98 332.02C132.98 332.02 132.98 332.02 132.98 332.02C132.98 346.25 132.98 354.16 132.98 355.74C132.98 355.74 132.98 355.74 132.98 355.74C85.57 355.74 59.23 355.74 53.97 355.74C53.97 355.74 53.97 355.74 53.97 355.74C53.97 341.5 53.97 333.6 53.97 332.02C53.97 332.02 53.97 332.02 53.97 332.02C101.37 332.02 127.71 332.02 132.98 332.02Z" id="d7OwR1ZiV"></path><path d="M2.97 262.94L2.97 378.71L2.97 402.44L26.69 402.44L74.41 402.44L74.41 378.71L26.69 378.71L26.69 262.94L74.41 262.94L74.41 239.22L26.69 239.22L2.97 239.22L2.97 262.94Z" id="h3s7D3SNp1"></path><path d="M111.22 239.22L111.22 262.94L160.27 262.94L160.27 378.71L111.22 378.71L111.22 402.44L160.27 402.44L183.97 402.44L183.97 378.71L183.97 262.94L183.97 239.22L160.27 239.22L111.22 239.22Z" id="c8TZPqY9Ha"></path></defs><g><g><use xlink:href="#b3gCVdbaFM" opacity="1" fill="#000000" fill-opacity="1"></use><g><use xlink:href="#b3gCVdbaFM" opacity="1" fill-opacity="0" stroke="#000000" stroke-width="1" stroke-opacity="0"></use></g></g><g><use xlink:href="#d7OwR1ZiV" opacity="1" fill="#000000" fill-opacity="1"></use><g><use xlink:href="#d7OwR1ZiV" opacity="1" fill-opacity="0" stroke="#000000" stroke-width="1" stroke-opacity="0"></use></g></g><g><use xlink:href="#h3s7D3SNp1" opacity="1" fill="#000000" fill-opacity="1"></use><g><use xlink:href="#h3s7D3SNp1" opacity="1" fill-opacity="0" stroke="#000000" stroke-width="1" stroke-opacity="0"></use></g></g><g><use xlink:href="#c8TZPqY9Ha" opacity="1" fill="#000000" fill-opacity="1"></use><g><use xlink:href="#c8TZPqY9Ha" opacity="1" fill-opacity="0" stroke="#000000" stroke-width="1" stroke-opacity="0"></use></g></g></g></svg>